<?xml version="1.0" encoding="UTF-8"?>
<svg version="1.1" viewBox="0 0 1000 450" preserveAspectRatio="xMidYMid meet" xmlns="http://www.w3.org/2000/svg" xmlns:xlink="http://www.w3.org/1999/xlink" onload="initialize(evt)"><!--SVG SMIL Animation Export (c) 2014 Animatron LLC--><!--Version 1.0 by squared9--><rect fill="#ffffff" stroke="none" x="0" y="0" width="1000px" height="450px"/><defs><mask id="canvasMask"><rect x="0" y="0" width="1000px" height="450px" fill="#FFFFFF" stroke="none"/></mask><linearGradient gradientUnits="objectBoundingBox" id="id0a8b0f799a35b37023d06c6elgf" x1="0.504" y1="0.022" x2="0.5" y2="1.028"><stop offset="0.0%" stop-color="#bad9f2" stop-opacity="1.0"/><stop offset="100.0%" stop-color="#7784d3" stop-opacity="1.0"/></linearGradient><linearGradient gradientUnits="objectBoundingBox" id="id73d2cb5af3b042cbb87d244dlgf" x1="0.5" y1="0" x2="0.497" y2="1.01"><stop offset="0.0%" stop-color="#cfdbe5" stop-opacity="1.0"/><stop offset="100.0%" stop-color="#8a8585" stop-opacity="1.0"/></linearGradient><linearGradient gradientUnits="objectBoundingBox" id="idb5e13eeb9d9063b07aa6e975lgf" x1="0.5" y1="0" x2="0.537" y2="0.978"><stop offset="0.0%" stop-color="#777b7f" stop-opacity="1.0"/><stop offset="100.0%" stop-color="#b2b0b0" stop-opacity="1.0"/></linearGradient><linearGradient gradientUnits="objectBoundingBox" id="idea6131305c724ec66e553a09lgf" x1="0.5" y1="0" x2="0.498" y2="0.203"><stop offset="0.0%" stop-color="#c5040b" stop-opacity="1.0"/><stop offset="100.0%" stop-color="#501f0d" stop-opacity="1.0"/></linearGradient><linearGradient gradientUnits="objectBoundingBox" id="id4bc87921a672e99400a31559lgf" x1="0.559" y1="-0.008" x2="0.52" y2="0.992"><stop offset="0.0%" stop-color="#f20000" stop-opacity="1.0"/><stop offset="100.0%" stop-color="#990505" stop-opacity="1.0"/></linearGradient><linearGradient gradientUnits="objectBoundingBox" id="ide9cc8e63884631f1ed6d3cb7lgf" x1="0.505" y1="-0.011" x2="0.634" y2="0.93"><stop offset="0.0%" stop-color="#ef060e" stop-opacity="1.0"/><stop offset="100.0%" stop-color="#4d0306" stop-opacity="1.0"/></linearGradient><linearGradient gradientUnits="objectBoundingBox" id="idf23fee2972d574810e1c8426lgf" x1="0.505" y1="-0.011" x2="0.634" y2="0.93"><stop offset="0.0%" stop-color="#ef060e" stop-opacity="1.0"/><stop offset="100.0%" stop-color="#4d0306" stop-opacity="1.0"/></linearGradient><linearGradient gradientUnits="objectBoundingBox" id="idb29afc06cd6d66f1cacc92b2lgf" x1="0.505" y1="-0.011" x2="0.634" y2="0.93"><stop offset="0.0%" stop-color="#ef060e" stop-opacity="1.0"/><stop offset="100.0%" stop-color="#4d0306" stop-opacity="1.0"/></linearGradient><linearGradient gradientUnits="objectBoundingBox" id="idc8872360e4b3fc86bb9e9ad4lgf" x1="0.505" y1="-0.011" x2="0.634" y2="0.93"><stop offset="0.0%" stop-color="#ef060e" stop-opacity="1.0"/><stop offset="100.0%" stop-color="#4d0306" stop-opacity="1.0"/></linearGradient></defs><script><![CDATA[      var document = null;
      var root = null;

      function initialize(event)
      {
         document = event.target.ownerDocument;
         root = document.documentElement;
      };

      function freeze()
      {
         root.pauseAnimations();
      };

]]></script><rect id="finalizer" x="0" y="0" width="1" height="1" style="fill: none; stroke: none"><set attributeName="x" to="0" begin="1.5999999999999999s" dur="1000000s" fill="freeze" onbegin="freeze();"/></rect><g id="id89e8ad5433cd1d4e4b7ac602" mask="url(#canvasMask)"><path id="id0a8b0f799a35b37023d06c6e" d="M 0,0 L 1027,0 L 1027,336 L 0,336 L 0,0 M 0,0 Z" style="fill: url(#id0a8b0f799a35b37023d06c6elgf); stroke: none" visibility="hidden"><set attributeName="visibility" attributeType="CSS" to="visible" begin="0s" fill="none"/><set attributeName="visibility" attributeType="CSS" to="hidden" begin="1.7s" dur="1000000000000s" fill="freeze"/><animateTransform attributeName="transform" type="translate" additive="replace" begin="0.0s" dur="1000000.0s" repeatCount="1" fill="none" from="500.25 169.003" to="500.25 169.003" calcMode="discrete"/><animateTransform attributeName="transform" type="scale" additive="sum" begin="0.0s" dur="1000000.0s" repeatCount="1" fill="none" from="0.9814995131450827 1.0" to="0.9814995131450827 1.0" calcMode="discrete"/><animateTransform attributeName="transform" type="translate" additive="sum" begin="0.0s" dur="1000000.0s" repeatCount="1" fill="none" from="-513.5 -168.0" to="-513.5 -168.0" calcMode="discrete"/></path><path id="id73d2cb5af3b042cbb87d244d" d="M -110.027,-107.172 C -140.144,-107.172 -165.993,-91.553 -178.645,-69.007 C -183.697,-71.827 -189.271,-73.536 -195.219,-73.536 C -213.209,-73.536 -228.178,-59.064 -232.804,-39.42 C -240.701,-42.539 -249.882,-44.429 -259.69,-44.429 C -289.115,-44.429 -312.985,-28.33 -312.985,-8.481 C -312.985,9.435 -293.408,24.164 -267.978,26.888 C -269.117,28.82 -269.999,30.734 -269.999,32.763 C -269.999,51.766 -217.934,67.266 -153.768,67.266 C -89.603,67.266 -37.537,51.766 -37.537,32.763 C -37.537,31.486 -38.329,30.346 -38.788,29.104 C -35.978,29.803 -33.196,30.548 -30.117,30.548 C -12.952,30.548 1.012,18.885 1.012,4.526 C 1.012,-9.832 -12.952,-21.495 -30.117,-21.495 C -32.22,-21.495 -34.007,-20.77 -35.994,-20.438 C -34.257,-26.178 -33.105,-32.034 -33.105,-38.265 C -33.105,-76.272 -67.507,-107.174 -110.011,-107.174 L -110.011,-107.174 M -110.011,-107.174 " style="fill: url(#id73d2cb5af3b042cbb87d244dlgf); stroke: none" visibility="hidden"><set attributeName="visibility" attributeType="CSS" to="visible" begin="0s" fill="none"/><set attributeName="visibility" attributeType="CSS" to="hidden" begin="1.7s" dur="1000000000000s" fill="freeze"/><animateTransform attributeName="transform" type="translate" additive="replace" begin="0.0s" dur="0.2s" repeatCount="1" fill="none" from="1158.0 125.0" to="1137.0 124.002"/><animateTransform attributeName="transform" type="translate" additive="replace" begin="0.2s" dur="0.2s" repeatCount="1" fill="none" from="1137.0 124.0" to="1115.0 121.0"/><animateTransform attributeName="transform" type="translate" additive="replace" begin="0.4s" dur="0.19999999999999996s" repeatCount="1" fill="none" from="1115.0 121.0" to="1092.0 119.002"/><animateTransform attributeName="transform" type="translate" additive="replace" begin="0.6s" dur="0.20000000000000007s" repeatCount="1" fill="none" from="1092.0 119.0" to="1058.0 117.0"/><animateTransform attributeName="transform" type="translate" additive="replace" begin="0.8s" dur="0.19999999999999996s" repeatCount="1" fill="none" from="1058.0 117.0" to="1014.0 122.0"/><animateTransform attributeName="transform" type="translate" additive="replace" begin="1.0s" dur="0.19999999999999996s" repeatCount="1" fill="none" from="1014.0 122.0" to="959.0 127.998"/><animateTransform attributeName="transform" type="translate" additive="replace" begin="1.2s" dur="0.30000000000000004s" repeatCount="1" fill="none" from="959.0 128.0" to="794.0 137.0"/><animateTransform attributeName="transform" type="translate" additive="replace" begin="1.5s" dur="999998.5s" repeatCount="1" fill="none" from="794.0 137.0" to="794.0 137.0" calcMode="discrete"/><animateTransform attributeName="transform" type="translate" additive="sum" begin="0.0s" dur="0.2s" repeatCount="1" fill="none" from="156.0 19.949" to="156.0 19.949" calcMode="discrete"/><animateTransform attributeName="transform" type="translate" additive="sum" begin="0.2s" dur="0.2s" repeatCount="1" fill="none" from="156.0 19.949" to="156.0 19.949" calcMode="discrete"/><animateTransform attributeName="transform" type="translate" additive="sum" begin="0.4s" dur="0.19999999999999996s" repeatCount="1" fill="none" from="156.0 19.949" to="156.0 19.949" calcMode="discrete"/><animateTransform attributeName="transform" type="translate" additive="sum" begin="0.6s" dur="0.20000000000000007s" repeatCount="1" fill="none" from="156.0 19.949" to="156.0 19.949" calcMode="discrete"/><animateTransform attributeName="transform" type="translate" additive="sum" begin="0.8s" dur="0.19999999999999996s" repeatCount="1" fill="none" from="156.0 19.949" to="156.0 19.949" calcMode="discrete"/><animateTransform attributeName="transform" type="translate" additive="sum" begin="1.0s" dur="0.19999999999999996s" repeatCount="1" fill="none" from="156.0 19.949" to="156.0 19.949" calcMode="discrete"/><animateTransform attributeName="transform" type="translate" additive="sum" begin="1.2s" dur="0.30000000000000004s" repeatCount="1" fill="none" from="156.0 19.949" to="156.0 19.949" calcMode="discrete"/><animateTransform attributeName="transform" type="translate" additive="sum" begin="1.5s" dur="999998.5s" repeatCount="1" fill="none" from="156.0 19.949" to="156.0 19.949" calcMode="discrete"/></path><path id="idb5e13eeb9d9063b07aa6e975" d="M 236.311,259.076 C 234.857,261.746 232.904,265.334 232.538,266.084 L 232.538,266.084 C 232.476,266.008 232.402,265.932 232.312,265.856 L 232.312,265.856 C 232.336,265.801 232.354,265.741 232.367,265.681 L 232.367,265.681 C 233.143,262.932 234.73,260.923 236.302,259.085 L 236.302,259.085 M 238.233,256.804 C 239.36,259.121 241.761,263.572 244.936,266.749 C 247.039,268.849 249.48,270.394 252.112,270.394 C 254.097,270.394 256.189,269.519 258.33,267.342 C 259.57,266.08 258.97,262.907 260.84,260.242 C 264.387,263.599 272.629,264.586 275.845,265.292 C 271.211,265.359 269.461,272.89 270.468,273.897 C 270.508,273.937 270.553,273.963 270.601,273.979 C 278.468,276.841 283.681,277.936 287.815,277.936 C 295.216,277.936 299.155,274.424 308.655,271.259 L 308.655,271.259 C 308.232,275.355 307.237,278.532 304.204,282.568 L 304.204,282.568 C 302.673,282.897 295.637,284.312 287.337,284.312 C 281.511,284.312 275.06,283.615 269.45,281.356 C 268.946,282.673 265.403,280.133 267.76,285.748 C 263.275,284.2 257.295,282.136 252.81,280.588 C 255.64,279.697 255.155,278.755 253.89,277.39 C 253.866,277.364 253.917,277.278 253.902,277.257 C 253.901,277.257 253.9,277.257 253.899,277.257 C 244.516,275.931 239.346,273.179 234.635,268.468 C 233.978,267.812 233.333,267.118 232.688,266.383 C 232.658,266.292 232.608,266.204 232.54,266.116 L 232.54,266.116 C 233.716,263.996 235.277,261.182 236.45,259.07 C 236.483,258.986 236.516,258.905 236.549,258.824 L 236.549,258.824 C 236.646,258.712 236.743,258.6 236.84,258.488 L 236.84,258.488 C 236.841,258.488 236.842,258.488 236.843,258.488 L 236.843,258.488 C 237.315,257.94 237.776,257.4 238.208,256.86 L 238.208,256.86 M 314.741,126.352 C 314.741,126.352 314.743,126.361 314.743,126.361 C 300.628,126.361 291.013,139.65 288.824,142.276 C 286.185,145.439 273.152,188.219 273.152,188.219 C 273.152,188.219 262.789,208.945 258.08,221.191 C 258.08,232.902 247.723,236.845 238.28,253.949 L 238.28,253.949 C 238.05,254.005 237.852,254.149 237.727,254.343 L 237.727,254.343 C 237.07,255.332 236.26,256.269 235.424,257.237 L 235.424,257.237 C 235.423,257.237 235.422,257.237 235.421,257.237 L 235.421,257.237 C 233.549,259.41 231.569,261.746 230.601,265.019 L 230.601,265.019 C 222.689,262.157 195.324,260.804 195.324,260.804 L 195.324,260.804 C 193.893,261.423 181.265,272.894 230.719,298.61 C 230.919,298.713 237.902,306.547 259.295,310.703 C 265.444,311.897 269.77,312.305 273.399,312.305 C 281.254,312.305 285.838,310.392 298.551,310.392 C 314.668,310.392 331.413,308.188 340.985,300.282 C 327.502,291.424 315.101,288.965 305.94,283.466 L 305.94,283.466 C 309.437,278.724 310.328,275.059 310.695,269.915 L 310.695,269.915 C 317.954,257.053 307.168,224.854 304.837,204.622 C 317.084,194.259 308.022,171.227 306.138,163.691 C 304.718,158.005 300.526,138.889 318.473,138.889 C 324.059,138.889 350.607,152.981 352.628,159.292 L 352.628,159.292 C 348.677,135.004 323.584,126.324 314.774,126.324 L 314.774,126.324 L 314.762,126.34 M 236.323,259.104 " style="fill: url(#idb5e13eeb9d9063b07aa6e975lgf); stroke: none" visibility="hidden"><set attributeName="visibility" attributeType="CSS" to="visible" begin="0s" fill="none"/><set attributeName="visibility" attributeType="CSS" to="hidden" begin="1.7s" dur="1000000000000s" fill="freeze"/><animateTransform attributeName="transform" type="translate" additive="replace" begin="0.0s" dur="1000000.0s" repeatCount="1" fill="none" from="408.25 432.005" to="408.25 432.005" calcMode="discrete"/><animateTransform attributeName="transform" type="rotate" additive="sum" begin="0.0s" dur="1000000.0s" repeatCount="1" fill="none" from="180.0 0.0 0.0" to="180.0 0.0 0.0" calcMode="discrete"/><animateTransform attributeName="transform" type="skewX" additive="sum" begin="0.0s" dur="1000000.0s" repeatCount="1" fill="none" from="0" to="0" calcMode="discrete"/><animateTransform attributeName="transform" type="scale" additive="sum" begin="0.0s" dur="1000000.0s" repeatCount="1" fill="none" from="1 1.0" to="1 1.0" calcMode="discrete"/><animateTransform attributeName="transform" type="skewY" additive="sum" begin="0.0s" dur="1000000.0s" repeatCount="1" fill="none" from="0" to="0" calcMode="discrete"/><animateTransform attributeName="transform" type="translate" additive="sum" begin="0.0s" dur="1000000.0s" repeatCount="1" fill="none" from="-272.725 -219.294" to="-272.725 -219.294" calcMode="discrete"/></path><path id="idea6131305c724ec66e553a09" d="M 0.998,133.204 L 125.497,47.135 L 249.997,133.204 L 125.497,219.273 L 0.998,133.204 L 0.998,133.204 M 0.998,133.204 " style="fill: url(#idea6131305c724ec66e553a09lgf); stroke: none" visibility="hidden"><set attributeName="visibility" attributeType="CSS" to="visible" begin="0s" fill="none"/><set attributeName="visibility" attributeType="CSS" to="hidden" begin="1.7s" dur="1000000000000s" fill="freeze"/><animateTransform attributeName="transform" type="translate" additive="replace" begin="0.0s" dur="1000000.0s" repeatCount="1" fill="none" from="184.25 332.002" to="184.25 332.002" calcMode="discrete"/><animateTransform attributeName="transform" type="translate" additive="sum" begin="0.0s" dur="1000000.0s" repeatCount="1" fill="none" from="-125.498 -133.205" to="-125.498 -133.205" calcMode="discrete"/></path><path id="idbd956b0a6b3d0dda5f0f7ad0" d="M 0,-19.5 C 0,-30.268 81.26,-38.997 181.499,-38.997 C 281.738,-38.997 362.997,-30.267 362.997,-19.498 C 362.997,-8.729 281.738,0.001 181.499,0.001 C 81.26,0.001 0,-8.729 0,-19.498 " style="fill: #259b24; fill-opacity: 1.0; stroke: none" visibility="hidden"><set attributeName="visibility" attributeType="CSS" to="visible" begin="0s" fill="none"/><set attributeName="visibility" attributeType="CSS" to="hidden" begin="1.7s" dur="1000000000000s" fill="freeze"/><animateTransform attributeName="transform" type="translate" additive="replace" begin="0.0s" dur="1000000.0s" repeatCount="1" fill="none" from="179.25 341.002" to="179.25 341.002" calcMode="discrete"/><animateTransform attributeName="transform" type="translate" additive="sum" begin="0.0s" dur="1000000.0s" repeatCount="1" fill="none" from="-181.5 19.5" to="-181.5 19.5" calcMode="discrete"/></path><path id="iddfb566365e9fe02dc5a66f67" d="M 0,0 L 1000,0 L 1000,208 L 0,208 L 0,0 M 0,0 Z" style="fill: #28dc27; fill-opacity: 1.0; stroke: none" visibility="hidden"><set attributeName="visibility" attributeType="CSS" to="visible" begin="0s" fill="none"/><set attributeName="visibility" attributeType="CSS" to="hidden" begin="1.7s" dur="1000000000000s" fill="freeze"/><animateTransform attributeName="transform" type="translate" additive="replace" begin="0.0s" dur="1000000.0s" repeatCount="1" fill="none" from="495.75 394.002" to="495.75 394.002" calcMode="discrete"/><animateTransform attributeName="transform" type="rotate" additive="sum" begin="0.0s" dur="1000000.0s" repeatCount="1" fill="none" from="0.0 0.0 0.0" to="0.0 0.0 0.0" calcMode="discrete"/><animateTransform attributeName="transform" type="scale" additive="sum" begin="0.0s" dur="1000000.0s" repeatCount="1" fill="none" from="1.0 0.5576923076923077" to="1.0 0.5576923076923077" calcMode="discrete"/><animateTransform attributeName="transform" type="translate" additive="sum" begin="0.0s" dur="1000000.0s" repeatCount="1" fill="none" from="-500.0 -104.0" to="-500.0 -104.0" calcMode="discrete"/></path><path id="id71952f57a4c5ec9e25e486a5" d="M 959.5,190.695 L 958.5,190.695 L 932.5,171.695 L 922.5,166.695 L 911.5,162.695 L 899.5,159.695 L 889.5,160.695 L 876.5,172.695 L 876.5,176.695 L 876.5,180.695 L 877.5,182.695 L 877.5,183.695 L 878.5,185.695 L 880.5,186.695 L 886.5,186.695 L 892.5,186.695 L 896.5,184.695 L 901.5,180.695 L 902.5,178.695 L 902.5,175.695 L 901.5,173.695 L 900.5,172.695 L 898.5,171.695 L 897.5,171.695 " style="fill: none; stroke: #9e9e9e; stroke-width: 2.0; stroke-opacity: 1.0" visibility="hidden"><set attributeName="visibility" attributeType="CSS" to="visible" begin="0.3s" fill="none"/><set attributeName="visibility" attributeType="CSS" to="hidden" begin="1.7s" dur="1000000000000s" fill="freeze"/><animateTransform attributeName="transform" type="translate" additive="replace" begin="0.3s" dur="999999.7s" repeatCount="1" fill="none" from="918.0 175.195" to="918.0 175.195" calcMode="discrete"/><animateTransform attributeName="transform" type="translate" additive="sum" begin="0.3s" dur="999999.7s" repeatCount="1" fill="none" from="-918.0 -175.195" to="-918.0 -175.195" calcMode="discrete"/></path><path id="ide1bf34bc115fba0dc8a6e55f" d="M 911.5,63.694 L 908.5,65.694 L 898.5,71.694 L 889.5,73.694 L 882.5,75.694 L 874.5,78.694 L 862.5,82.694 L 853.5,83.694 L 840.5,83.694 L 831.5,82.694 L 824.5,80.694 L 821.5,77.694 L 820.5,74.694 L 821.5,70.694 L 823.5,67.694 L 829.5,62.694 L 832.5,60.694 L 838.5,58.694 L 843.5,60.694 L 847.5,62.694 L 849.5,65.694 L 851.5,71.694 L 850.5,73.694 L 846.5,75.694 L 841.5,76.694 " style="fill: none; stroke: #9e9e9e; stroke-width: 2.0; stroke-opacity: 1.0" visibility="hidden"><set attributeName="visibility" attributeType="CSS" to="visible" begin="0.4s" fill="none"/><set attributeName="visibility" attributeType="CSS" to="hidden" begin="1.7s" dur="1000000000000s" fill="freeze"/><animateTransform attributeName="transform" type="translate" additive="replace" begin="0.4s" dur="999999.6s" repeatCount="1" fill="none" from="866.0 71.195" to="866.0 71.195" calcMode="discrete"/><animateTransform attributeName="transform" type="translate" additive="sum" begin="0.4s" dur="999999.6s" repeatCount="1" fill="none" from="-866.0 -71.195" to="-866.0 -71.195" calcMode="discrete"/></path><path id="id11f6d5f331cbebdb418ffe70" d="M 849.5,192.695 L 848.5,191.695 L 837.5,186.695 L 829.5,182.695 L 819.5,180.695 L 811.5,179.695 L 804.5,179.695 L 797.5,180.695 L 791.5,185.695 L 787.5,193.695 L 787.5,197.695 L 787.5,201.695 L 788.5,204.695 L 790.5,207.695 L 795.5,209.695 L 799.5,210.695 L 802.5,209.695 L 804.5,208.695 L 808.5,205.695 L 809.5,202.695 L 809.5,200.695 L 807.5,199.695 L 805.5,198.695 L 802.5,196.695 L 799.5,195.695 " style="fill: none; stroke: #9e9e9e; stroke-width: 2.0; stroke-opacity: 1.0" visibility="hidden"><set attributeName="visibility" attributeType="CSS" to="visible" begin="0.5s" fill="none"/><set attributeName="visibility" attributeType="CSS" to="hidden" begin="1.7s" dur="1000000000000s" fill="freeze"/><animateTransform attributeName="transform" type="translate" additive="replace" begin="0.5s" dur="999999.5s" repeatCount="1" fill="none" from="818.5 195.195" to="818.5 195.195" calcMode="discrete"/><animateTransform attributeName="transform" type="translate" additive="sum" begin="0.5s" dur="999999.5s" repeatCount="1" fill="none" from="-818.5 -195.195" to="-818.5 -195.195" calcMode="discrete"/></path><path id="idfc959390f26c2e209bdc6273" d="M 939.5,233.695 L 938.5,233.695 L 929.5,235.695 L 915.5,237.695 L 908.5,239.695 L 901.5,242.695 L 896.5,248.695 L 893.5,252.695 L 891.5,259.695 L 891.5,266.695 L 894.5,273.695 L 902.5,280.695 L 910.5,282.695 L 914.5,279.695 L 916.5,275.695 L 917.5,270.695 L 915.5,268.695 L 913.5,266.695 " style="fill: none; stroke: #9e9e9e; stroke-width: 2.0; stroke-opacity: 1.0" visibility="hidden"><set attributeName="visibility" attributeType="CSS" to="visible" begin="0.6s" fill="none"/><set attributeName="visibility" attributeType="CSS" to="hidden" begin="1.7s" dur="1000000000000s" fill="freeze"/><animateTransform attributeName="transform" type="translate" additive="replace" begin="0.6s" dur="999999.4s" repeatCount="1" fill="none" from="915.5 258.195" to="915.5 258.195" calcMode="discrete"/><animateTransform attributeName="transform" type="translate" additive="sum" begin="0.6s" dur="999999.4s" repeatCount="1" fill="none" from="-915.5 -258.195" to="-915.5 -258.195" calcMode="discrete"/></path><path id="iddfa1b76ef74274bbde5a804e" d="M 810.5,29.694 L 809.5,30.694 L 798.5,33.694 L 774.5,39.694 L 754.5,41.694 L 745.5,38.694 L 744.5,35.694 L 745.5,32.694 L 746.5,30.694 L 750.5,23.694 L 756.5,21.694 L 765.5,19.694 L 770.5,21.694 L 771.5,25.694 L 771.5,29.694 L 770.5,32.694 L 766.5,33.694 L 760.5,33.694 " style="fill: none; stroke: #9e9e9e; stroke-width: 2.0; stroke-opacity: 1.0" visibility="hidden"><set attributeName="visibility" attributeType="CSS" to="visible" begin="0.6s" fill="none"/><set attributeName="visibility" attributeType="CSS" to="hidden" begin="1.7s" dur="1000000000000s" fill="freeze"/><animateTransform attributeName="transform" type="translate" additive="replace" begin="0.6s" dur="999999.4s" repeatCount="1" fill="none" from="777.5 30.695" to="777.5 30.695" calcMode="discrete"/><animateTransform attributeName="transform" type="translate" additive="sum" begin="0.6s" dur="999999.4s" repeatCount="1" fill="none" from="-777.5 -30.695" to="-777.5 -30.695" calcMode="discrete"/></path><path id="id47b74e746c321b43ee9cf143" d="M 789.5,232.695 L 787.5,233.695 L 771.5,250.695 L 772.5,255.695 L 773.5,263.695 L 775.5,269.695 L 779.5,273.695 L 787.5,274.695 L 793.5,273.695 L 794.5,270.695 L 794.5,263.695 L 793.5,259.695 L 790.5,257.695 L 785.5,258.695 " style="fill: none; stroke: #9e9e9e; stroke-width: 2.0; stroke-opacity: 1.0" visibility="hidden"><set attributeName="visibility" attributeType="CSS" to="visible" begin="0.7s" fill="none"/><set attributeName="visibility" attributeType="CSS" to="hidden" begin="1.7s" dur="1000000000000s" fill="freeze"/><animateTransform attributeName="transform" type="translate" additive="replace" begin="0.7s" dur="999999.3s" repeatCount="1" fill="none" from="783.0 253.695" to="783.0 253.695" calcMode="discrete"/><animateTransform attributeName="transform" type="translate" additive="sum" begin="0.7s" dur="999999.3s" repeatCount="1" fill="none" from="-783.0 -253.695" to="-783.0 -253.695" calcMode="discrete"/></path><path id="id1445b01e0bde9d797aecfd39" d="M 706.5,179.695 L 705.5,179.695 L 695.5,184.695 L 683.5,187.695 L 667.5,191.695 L 658.5,191.695 L 653.5,189.695 L 646.5,187.695 L 639.5,183.695 L 637.5,179.695 L 637.5,176.695 L 639.5,172.695 L 644.5,167.695 L 652.5,164.695 L 657.5,165.695 L 662.5,168.695 L 664.5,172.695 L 663.5,177.695 L 659.5,179.695 " style="fill: none; stroke: #9e9e9e; stroke-width: 2.0; stroke-opacity: 1.0" visibility="hidden"><set attributeName="visibility" attributeType="CSS" to="visible" begin="0.7s" fill="none"/><set attributeName="visibility" attributeType="CSS" to="hidden" begin="1.7s" dur="1000000000000s" fill="freeze"/><animateTransform attributeName="transform" type="translate" additive="replace" begin="0.7s" dur="999999.3s" repeatCount="1" fill="none" from="672.0 178.195" to="672.0 178.195" calcMode="discrete"/><animateTransform attributeName="transform" type="translate" additive="sum" begin="0.7s" dur="999999.3s" repeatCount="1" fill="none" from="-672.0 -178.195" to="-672.0 -178.195" calcMode="discrete"/></path><path id="id1f12985d3bc5855c34285cb0" d="M 794.5,92.695 L 790.5,91.695 L 775.5,86.695 L 758.5,85.695 L 749.5,84.695 L 739.5,86.695 L 728.5,90.695 L 721.5,95.695 L 718.5,99.695 L 720.5,100.695 L 724.5,101.695 L 728.5,104.695 L 735.5,106.695 L 741.5,105.695 L 745.5,103.695 L 747.5,100.695 L 746.5,98.695 L 742.5,97.695 " style="fill: none; stroke: #9e9e9e; stroke-width: 2.0; stroke-opacity: 1.0" visibility="hidden"><set attributeName="visibility" attributeType="CSS" to="visible" begin="0.7s" fill="none"/><set attributeName="visibility" attributeType="CSS" to="hidden" begin="1.7s" dur="1000000000000s" fill="freeze"/><animateTransform attributeName="transform" type="translate" additive="replace" begin="0.7s" dur="999999.3s" repeatCount="1" fill="none" from="756.5 95.695" to="756.5 95.695" calcMode="discrete"/><animateTransform attributeName="transform" type="translate" additive="sum" begin="0.7s" dur="999999.3s" repeatCount="1" fill="none" from="-756.5 -95.695" to="-756.5 -95.695" calcMode="discrete"/></path><path id="id86275858e7e4d1f10f4b5c69" d="M 667.5,233.695 L 665.5,233.695 L 642.5,236.695 L 629.5,239.695 L 612.5,243.695 L 605.5,247.695 L 601.5,253.695 L 601.5,257.695 L 602.5,264.695 L 605.5,266.695 L 612.5,270.695 L 621.5,272.695 L 628.5,271.695 L 632.5,267.695 L 633.5,263.695 L 631.5,261.695 L 628.5,259.695 " style="fill: none; stroke: #9e9e9e; stroke-width: 2.0; stroke-opacity: 1.0" visibility="hidden"><set attributeName="visibility" attributeType="CSS" to="visible" begin="0.8s" fill="none"/><set attributeName="visibility" attributeType="CSS" to="hidden" begin="1.7s" dur="1000000000000s" fill="freeze"/><animateTransform attributeName="transform" type="translate" additive="replace" begin="0.8s" dur="999999.2s" repeatCount="1" fill="none" from="634.5 253.195" to="634.5 253.195" calcMode="discrete"/><animateTransform attributeName="transform" type="translate" additive="sum" begin="0.8s" dur="999999.2s" repeatCount="1" fill="none" from="-634.5 -253.195" to="-634.5 -253.195" calcMode="discrete"/></path><path id="id3f1512462e1e007c75e1a2f7" d="M 631.5,109.695 L 630.5,109.695 L 613.5,115.695 L 602.5,119.695 L 583.5,120.695 L 573.5,118.695 L 564.5,112.695 L 560.5,107.695 L 557.5,103.695 L 557.5,98.695 L 561.5,94.695 L 568.5,89.695 L 572.5,88.695 L 577.5,88.695 L 581.5,89.695 L 585.5,92.695 L 587.5,94.695 L 587.5,95.695 L 586.5,97.695 L 582.5,100.695 L 576.5,102.695 " style="fill: none; stroke: #9e9e9e; stroke-width: 2.0; stroke-opacity: 1.0" visibility="hidden"><set attributeName="visibility" attributeType="CSS" to="visible" begin="1.1s" fill="none"/><set attributeName="visibility" attributeType="CSS" to="hidden" begin="1.7s" dur="1000000000000s" fill="freeze"/><animateTransform attributeName="transform" type="translate" additive="replace" begin="1.1s" dur="999998.9s" repeatCount="1" fill="none" from="594.5 104.695" to="594.5 104.695" calcMode="discrete"/><animateTransform attributeName="transform" type="translate" additive="sum" begin="1.1s" dur="999998.9s" repeatCount="1" fill="none" from="-594.5 -104.695" to="-594.5 -104.695" calcMode="discrete"/></path><path id="id26ca8b5705fe3bb82bf69ea6" d="M 617.5,197.695 L 611.5,199.695 L 587.5,205.695 L 562.5,213.695 L 533.5,219.695 L 519.5,221.695 L 501.5,222.695 L 486.5,221.695 L 476.5,216.695 L 474.5,212.695 L 476.5,208.695 L 480.5,205.695 L 486.5,204.695 " style="fill: none; stroke: #9e9e9e; stroke-width: 2.0; stroke-opacity: 1.0" visibility="hidden"><set attributeName="visibility" attributeType="CSS" to="visible" begin="1.4s" fill="none"/><set attributeName="visibility" attributeType="CSS" to="hidden" begin="1.7s" dur="1000000000000s" fill="freeze"/><animateTransform attributeName="transform" type="translate" additive="replace" begin="1.4s" dur="999998.6s" repeatCount="1" fill="none" from="546.0 210.195" to="546.0 210.195" calcMode="discrete"/><animateTransform attributeName="transform" type="translate" additive="sum" begin="1.4s" dur="999998.6s" repeatCount="1" fill="none" from="-546.0 -210.195" to="-546.0 -210.195" calcMode="discrete"/></path><path id="idf0c214454b3b680b07960fd2" d="M 660.5,212.695 L 657.5,213.695 L 635.5,226.695 L 616.5,235.695 L 594.5,246.695 L 582.5,256.695 L 569.5,270.695 L 565.5,279.695 L 566.5,285.695 L 574.5,290.695 L 584.5,294.695 L 590.5,294.695 L 599.5,294.695 L 608.5,288.695 L 609.5,284.695 " style="fill: none; stroke: #9e9e9e; stroke-width: 2.0; stroke-opacity: 1.0" visibility="hidden"><set attributeName="visibility" attributeType="CSS" to="visible" begin="1.5s" fill="none"/><set attributeName="visibility" attributeType="CSS" to="hidden" begin="1.7s" dur="1000000000000s" fill="freeze"/><animateTransform attributeName="transform" type="translate" additive="replace" begin="1.5s" dur="999998.5s" repeatCount="1" fill="none" from="613.0 253.695" to="613.0 253.695" calcMode="discrete"/><animateTransform attributeName="transform" type="translate" additive="sum" begin="1.5s" dur="999998.5s" repeatCount="1" fill="none" from="-613.0 -253.695" to="-613.0 -253.695" calcMode="discrete"/></path><path id="idd177bc7ffd75bccdb57cecbc" d="M 920.5,214.695 L 921.5,216.695 L 934.5,230.695 L 946.5,239.695 L 955.5,245.695 L 964.5,250.695 L 973.5,252.695 L 982.5,254.695 L 989.5,252.695 L 995.5,248.695 L 996.5,244.695 L 995.5,240.695 L 990.5,238.695 L 985.5,236.695 L 980.5,235.695 L 974.5,236.695 " style="fill: none; stroke: #9e9e9e; stroke-width: 2.0; stroke-opacity: 1.0" visibility="hidden"><set attributeName="visibility" attributeType="CSS" to="visible" begin="1.6s" fill="none"/><set attributeName="visibility" attributeType="CSS" to="hidden" begin="1.7s" dur="1000000000000s" fill="freeze"/><animateTransform attributeName="transform" type="translate" additive="replace" begin="1.6s" dur="999998.4s" repeatCount="1" fill="none" from="958.5 234.695" to="958.5 234.695" calcMode="discrete"/><animateTransform attributeName="transform" type="translate" additive="sum" begin="1.6s" dur="999998.4s" repeatCount="1" fill="none" from="-958.5 -234.695" to="-958.5 -234.695" calcMode="discrete"/></path><path id="id2dd0a844098e61fdfbd54b38" d="M 768.5,236.695 L 766.5,238.695 L 746.5,256.695 L 724.5,268.695 L 706.5,281.695 L 682.5,294.695 L 664.5,301.695 L 656.5,301.695 L 649.5,297.695 L 646.5,290.695 L 646.5,281.695 L 656.5,264.695 L 665.5,257.695 L 673.5,259.695 L 674.5,274.695 " style="fill: none; stroke: #9e9e9e; stroke-width: 2.0; stroke-opacity: 1.0" visibility="hidden"><animateTransform attributeName="transform" type="translate" additive="replace" begin="1.7s" dur="999998.3s" repeatCount="1" fill="none" from="707.5 269.195" to="707.5 269.195" calcMode="discrete"/><animateTransform attributeName="transform" type="translate" additive="sum" begin="1.7s" dur="999998.3s" repeatCount="1" fill="none" from="-707.5 -269.195" to="-707.5 -269.195" calcMode="discrete"/></path><path id="id4bc87921a672e99400a31559" d="M 52.602,65.191 C 50.508,63.423 52.221,60.299 52.343,58.007 C 53.247,55.556 53.208,39.3 49.958,39.239 C 46.505,38.191 42.576,39.639 39.409,37.582 C 37.264,36.312 36.599,33.721 36.654,31.392 C 36.696,28.978 34.263,27.963 33.48,25.941 C 32.422,23.417 33.336,20.532 35.153,18.609 C 36.869,16.649 35.363,14.082 36.241,11.938 C 37.494,9.021 41.237,10.309 43.248,8.303 C 45.406,6.779 47.247,4.141 50.238,4.533 C 53.127,4.715 56.352,5.232 58.797,3.268 C 61.076,1.363 64.265,0.345 67.126,1.516 C 69.839,2.353 72.926,4.103 72.938,7.321 C 72.11,10.622 75.239,10.583 77.49,11.038 C 80.155,12.237 82.902,14.102 84.004,16.91 C 84.297,20.12 80.662,22.781 82.311,26.058 C 82.957,29.251 80.182,31.022 78.187,32.752 C 77.367,35.876 74.255,38.415 70.909,37.672 C 68.215,37.23 66.553,40.177 63.806,39.919 C 61.986,41.794 63.226,57.885 63.563,60.104 C 64.935,62.848 63.024,65.883 59.936,65.792 C 57.516,66.082 54.88,66.217 52.607,65.195 L 52.607,65.195 M 52.607,65.195 " style="fill: url(#id4bc87921a672e99400a31559lgf); stroke: none" visibility="hidden"><set attributeName="visibility" attributeType="CSS" to="visible" begin="0s" fill="none"/><set attributeName="visibility" attributeType="CSS" to="hidden" begin="1.7s" dur="1000000000000s" fill="freeze"/><animateTransform attributeName="transform" type="translate" additive="replace" begin="0.0s" dur="1000000.0s" repeatCount="1" fill="none" from="184.5 222.753" to="184.5 222.753" calcMode="discrete"/><animateTransform attributeName="transform" type="scale" additive="sum" begin="0.0s" dur="1000000.0s" repeatCount="1" fill="none" from="0.9999846156212983 0.9999846156212983" to="0.9999846156212983 0.9999846156212983" calcMode="discrete"/><animateTransform attributeName="transform" type="translate" additive="sum" begin="0.0s" dur="1000000.0s" repeatCount="1" fill="none" from="-58.528 -33.5" to="-58.528 -33.5" calcMode="discrete"/></path><path id="ide9cc8e63884631f1ed6d3cb7" d="M 53.488,21.409 C 50.58,20.316 48.495,16.844 48.967,13.881 C 49.265,12.013 55.567,0.67 56.116,1.01 C 56.295,1.12 57.892,3.764 59.666,6.885 C 62.507,11.884 62.89,12.816 62.89,14.72 C 62.89,18.581 59.8,21.744 56.09,21.682 C 55.008,21.664 53.835,21.541 53.484,21.409 L 53.484,21.409 M 56.398,19.467 C 56.493,18.969 56.27,18.727 55.713,18.727 C 54.443,18.727 52.681,17.118 52.288,15.599 C 51.868,13.98 50.756,13.788 50.592,15.307 C 50.276,18.234 55.87,22.244 56.403,19.473 L 56.403,19.473 M 53.489,21.415 " style="fill: url(#ide9cc8e63884631f1ed6d3cb7lgf); stroke: none" visibility="hidden"><set attributeName="visibility" attributeType="CSS" to="visible" begin="0s" fill="none"/><set attributeName="visibility" attributeType="CSS" to="hidden" begin="1.7s" dur="1000000000000s" fill="freeze"/><animateTransform attributeName="transform" type="translate" additive="replace" begin="0.0s" dur="1000000.0s" repeatCount="1" fill="none" from="168.999 238.003" to="168.999 238.003" calcMode="discrete"/><animateTransform attributeName="transform" type="rotate" additive="sum" begin="0.0s" dur="1000000.0s" repeatCount="1" fill="none" from="120.0 0.0 0.0" to="120.0 0.0 0.0" calcMode="discrete"/><animateTransform attributeName="transform" type="scale" additive="sum" begin="0.0s" dur="1000000.0s" repeatCount="1" fill="none" from="0.5203760741432636 0.5203760741432636" to="0.5203760741432636 0.5203760741432636" calcMode="discrete"/><animateTransform attributeName="transform" type="translate" additive="sum" begin="0.0s" dur="1000000.0s" repeatCount="1" fill="none" from="-55.901 -11.343" to="-55.901 -11.343" calcMode="discrete"/></path><path id="idf23fee2972d574810e1c8426" d="M 53.488,21.409 C 50.58,20.316 48.495,16.844 48.967,13.881 C 49.265,12.013 55.567,0.67 56.115,1.01 C 56.294,1.12 57.891,3.764 59.665,6.884 C 62.506,11.882 62.889,12.814 62.889,14.718 C 62.889,18.578 59.801,21.741 56.091,21.679 C 55.009,21.661 53.836,21.538 53.486,21.406 L 53.486,21.406 M 56.4,19.464 C 56.494,18.966 56.272,18.724 55.715,18.724 C 54.445,18.724 52.683,17.116 52.29,15.597 C 51.87,13.979 50.758,13.787 50.594,15.306 C 50.278,18.232 55.872,22.241 56.405,19.47 L 56.405,19.47 M 53.491,21.412 " style="fill: url(#idf23fee2972d574810e1c8426lgf); stroke: none" visibility="hidden"><set attributeName="visibility" attributeType="CSS" to="visible" begin="0s" fill="none"/><set attributeName="visibility" attributeType="CSS" to="hidden" begin="1.7s" dur="1000000000000s" fill="freeze"/><animateTransform attributeName="transform" type="translate" additive="replace" begin="0.0s" dur="1000000.0s" repeatCount="1" fill="none" from="197.499 238.999" to="197.499 238.999" calcMode="discrete"/><animateTransform attributeName="transform" type="rotate" additive="sum" begin="0.0s" dur="1000000.0s" repeatCount="1" fill="none" from="250.00000000000003 0.0 0.0" to="250.00000000000003 0.0 0.0" calcMode="discrete"/><animateTransform attributeName="transform" type="scale" additive="sum" begin="0.0s" dur="1000000.0s" repeatCount="1" fill="none" from="0.5203760741432636 0.5203760741432636" to="0.5203760741432636 0.5203760741432636" calcMode="discrete"/><animateTransform attributeName="transform" type="translate" additive="sum" begin="0.0s" dur="1000000.0s" repeatCount="1" fill="none" from="-55.901 -11.343" to="-55.901 -11.343" calcMode="discrete"/></path><path id="idb29afc06cd6d66f1cacc92b2" d="M 53.488,21.409 C 50.58,20.316 48.495,16.844 48.967,13.881 C 49.265,12.013 55.567,0.67 56.115,1.01 C 56.294,1.12 57.891,3.764 59.665,6.884 C 62.506,11.882 62.889,12.814 62.889,14.718 C 62.889,18.578 59.801,21.741 56.091,21.679 C 55.009,21.661 53.836,21.538 53.486,21.406 L 53.486,21.406 M 56.4,19.464 C 56.494,18.966 56.272,18.724 55.715,18.724 C 54.445,18.724 52.683,17.116 52.29,15.597 C 51.87,13.979 50.758,13.787 50.594,15.306 C 50.278,18.232 55.872,22.241 56.405,19.47 L 56.405,19.47 M 53.491,21.412 " style="fill: url(#idb29afc06cd6d66f1cacc92b2lgf); stroke: none" visibility="hidden"><set attributeName="visibility" attributeType="CSS" to="visible" begin="0s" fill="none"/><set attributeName="visibility" attributeType="CSS" to="hidden" begin="1.7s" dur="1000000000000s" fill="freeze"/><animateTransform attributeName="transform" type="translate" additive="replace" begin="0.0s" dur="1000000.0s" repeatCount="1" fill="none" from="200.002 250.75" to="200.002 250.75" calcMode="discrete"/><animateTransform attributeName="transform" type="rotate" additive="sum" begin="0.0s" dur="1000000.0s" repeatCount="1" fill="none" from="300.0 0.0 0.0" to="300.0 0.0 0.0" calcMode="discrete"/><animateTransform attributeName="transform" type="scale" additive="sum" begin="0.0s" dur="1000000.0s" repeatCount="1" fill="none" from="0.5203760741432636 0.5203760741432636" to="0.5203760741432636 0.5203760741432636" calcMode="discrete"/><animateTransform attributeName="transform" type="translate" additive="sum" begin="0.0s" dur="1000000.0s" repeatCount="1" fill="none" from="-55.901 -11.343" to="-55.901 -11.343" calcMode="discrete"/></path><path id="idc8872360e4b3fc86bb9e9ad4" d="M 53.488,21.409 C 50.58,20.316 48.495,16.844 48.967,13.881 C 49.265,12.013 55.567,0.67 56.115,1.01 C 56.294,1.12 57.891,3.764 59.665,6.884 C 62.506,11.882 62.889,12.814 62.889,14.718 C 62.889,18.578 59.801,21.741 56.091,21.679 C 55.009,21.661 53.836,21.538 53.486,21.406 L 53.486,21.406 M 56.4,19.464 C 56.494,18.966 56.272,18.724 55.715,18.724 C 54.445,18.724 52.683,17.116 52.29,15.597 C 51.87,13.979 50.758,13.787 50.594,15.306 C 50.278,18.232 55.872,22.241 56.405,19.47 L 56.405,19.47 M 53.491,21.412 " style="fill: url(#idc8872360e4b3fc86bb9e9ad4lgf); stroke: none" visibility="hidden"><set attributeName="visibility" attributeType="CSS" to="visible" begin="0s" fill="none"/><set attributeName="visibility" attributeType="CSS" to="hidden" begin="1.7s" dur="1000000000000s" fill="freeze"/><animateTransform attributeName="transform" type="translate" additive="replace" begin="0.0s" dur="1000000.0s" repeatCount="1" fill="none" from="166.75 250.756" to="166.75 250.756" calcMode="discrete"/><animateTransform attributeName="transform" type="rotate" additive="sum" begin="0.0s" dur="1000000.0s" repeatCount="1" fill="none" from="59.999999999999986 0.0 0.0" to="59.999999999999986 0.0 0.0" calcMode="discrete"/><animateTransform attributeName="transform" type="scale" additive="sum" begin="0.0s" dur="1000000.0s" repeatCount="1" fill="none" from="0.5203760741432636 0.5203760741432636" to="0.5203760741432636 0.5203760741432636" calcMode="discrete"/><animateTransform attributeName="transform" type="translate" additive="sum" begin="0.0s" dur="1000000.0s" repeatCount="1" fill="none" from="-55.901 -11.343" to="-55.901 -11.343" calcMode="discrete"/></path><g id="id1030ba60c67cf81fcf89419a" visibility="hidden"><set attributeName="visibility" attributeType="CSS" to="visible" begin="0s" fill="none"/><set attributeName="visibility" attributeType="CSS" to="hidden" begin="1.7s" dur="1000000000000s" fill="freeze"/><animateTransform attributeName="transform" type="translate" additive="replace" begin="0.0s" dur="1000000.0s" repeatCount="1" fill="none" from="515.153 423.199" to="515.153 423.199" calcMode="discrete"/><animateTransform attributeName="transform" type="scale" additive="sum" begin="0.0s" dur="1000000.0s" repeatCount="1" fill="none" from="0.9928726682320906 0.9928726682320906" to="0.9928726682320906 0.9928726682320906" calcMode="discrete"/><animateTransform attributeName="transform" type="translate" additive="sum" begin="0.0s" dur="1000000.0s" repeatCount="1" fill="none" from="-0.0 -0.0" to="-0.0 -0.0" calcMode="discrete"/><path id="id443c73d6eb13e567ffe3ba1a" d="M 119.727,43.621 L 56.382,83.787 L 118.944,97.586 L 61.118,140.708 L 37.773,133.427 L 54.331,174.992 L 120.136,156.858 L 92.353,149.278 L 167.8,87.341 L 98.833,76.117 L 165.432,34.263 L 127.443,27.98 L 168.819,1.38 L 153.62,0.998 L 89.414,37.491 L 119.73,43.625 L 119.73,43.625 M 119.73,43.625 " style="fill: #795548; fill-opacity: 1.0; stroke: none" visibility="hidden"><set attributeName="visibility" attributeType="CSS" to="visible" begin="0s" fill="none"/><set attributeName="visibility" attributeType="CSS" to="hidden" begin="1.7s" dur="1000000000000s" fill="freeze"/><animateTransform attributeName="transform" type="translate" additive="replace" begin="0.0s" dur="1000000.0s" repeatCount="1" fill="none" from="-11.999 0.0" to="-11.999 0.0" calcMode="discrete"/><animateTransform attributeName="transform" type="translate" additive="sum" begin="0.0s" dur="1000000.0s" repeatCount="1" fill="none" from="-103.295 -87.993" to="-103.295 -87.993" calcMode="discrete"/></path><path id="id8eb31ef00378af7e13280821" d="M 119.727,43.621 L 56.382,83.787 L 118.944,97.586 L 61.118,140.708 L 37.773,133.427 L 54.331,174.992 L 120.136,156.858 L 92.353,149.278 L 167.8,87.341 L 98.833,76.117 L 165.432,34.263 L 127.443,27.98 L 168.819,1.38 L 153.62,0.998 L 89.414,37.491 L 119.73,43.625 L 119.73,43.625 M 119.73,43.625 " style="fill: #000000; fill-opacity: 1.0; stroke: none" visibility="hidden"><set attributeName="visibility" attributeType="CSS" to="visible" begin="0s" fill="none"/><set attributeName="visibility" attributeType="CSS" to="hidden" begin="1.7s" dur="1000000000000s" fill="freeze"/><animateTransform attributeName="transform" type="translate" additive="replace" begin="0.0s" dur="1000000.0s" repeatCount="1" fill="none" from="-3.0 0.0" to="-3.0 0.0" calcMode="discrete"/><animateTransform attributeName="transform" type="translate" additive="sum" begin="0.0s" dur="1000000.0s" repeatCount="1" fill="none" from="-103.295 -87.993" to="-103.295 -87.993" calcMode="discrete"/></path><path id="id452b4d7f4e0b19b96a61007d" d="M 119.727,43.621 L 56.382,83.787 L 118.944,97.586 L 61.118,140.708 L 37.773,133.427 L 54.331,174.992 L 120.136,156.858 L 92.353,149.278 L 167.8,87.341 L 98.833,76.117 L 165.432,34.263 L 127.443,27.98 L 168.819,1.38 L 153.62,0.998 L 89.414,37.491 L 119.73,43.625 L 119.73,43.625 M 119.73,43.625 " style="fill: #795548; fill-opacity: 1.0; stroke: none" visibility="hidden"><set attributeName="visibility" attributeType="CSS" to="visible" begin="0s" fill="none"/><set attributeName="visibility" attributeType="CSS" to="hidden" begin="1.7s" dur="1000000000000s" fill="freeze"/><animateTransform attributeName="transform" type="translate" additive="replace" begin="0.0s" dur="1000000.0s" repeatCount="1" fill="none" from="11.999 0.0" to="11.999 0.0" calcMode="discrete"/><animateTransform attributeName="transform" type="translate" additive="sum" begin="0.0s" dur="1000000.0s" repeatCount="1" fill="none" from="-103.295 -87.993" to="-103.295 -87.993" calcMode="discrete"/></path></g></g></svg>