<?xml version="1.0" encoding="UTF-8"?>
<svg version="1.1" viewBox="0 0 1000 450" preserveAspectRatio="xMidYMid meet" xmlns="http://www.w3.org/2000/svg" xmlns:xlink="http://www.w3.org/1999/xlink" onload="initialize(evt)"><!--SVG SMIL Animation Export (c) 2014 Animatron LLC--><!--Version 1.0 by squared9--><rect fill="#ffffff" stroke="none" x="0" y="0" width="1000px" height="450px"/><defs><mask id="canvasMask"><rect x="0" y="0" width="1000px" height="450px" fill="#FFFFFF" stroke="none"/></mask><linearGradient gradientUnits="objectBoundingBox" id="id2a7f4810d75502e472e6eb20lgf" x1="0.581" y1="0.502" x2="0.492" y2="0.502"><stop offset="0.0%" stop-color="#f64406" stop-opacity="1.0"/><stop offset="100.0%" stop-color="#421301" stop-opacity="1.0"/></linearGradient><linearGradient gradientUnits="objectBoundingBox" id="iddf9ddfe49b4b5737f5b017aclgf" x1="0.504" y1="-0.373" x2="0.502" y2="1.119"><stop offset="0.0%" stop-color="#ffc107" stop-opacity="1.0"/><stop offset="100.0%" stop-color="#e80000" stop-opacity="1.0"/></linearGradient><linearGradient gradientUnits="objectBoundingBox" id="ida2ce975d1bf91c63d5343520lgf" x1="0.496" y1="0.014" x2="0.511" y2="1.014"><stop offset="0.0%" stop-color="#b89899" stop-opacity="1.0"/><stop offset="34.2%" stop-color="#cf6e66" stop-opacity="1.0"/><stop offset="70.8%" stop-color="#ee3008" stop-opacity="1.0"/><stop offset="100.0%" stop-color="#c93805" stop-opacity="1.0"/></linearGradient></defs><script><![CDATA[      var document = null;
      var root = null;

      function initialize(event)
      {
         document = event.target.ownerDocument;
         root = document.documentElement;
      };

      function freeze()
      {
         root.pauseAnimations();
      };

]]></script><rect id="finalizer" x="0" y="0" width="1" height="1" style="fill: none; stroke: none"><set attributeName="x" to="0" begin="1.5999999999999999s" dur="1000000s" fill="freeze" onbegin="freeze();"/></rect><g id="id89e8ad5433cd1d4e4b7ac602" mask="url(#canvasMask)"><path id="id2a7f4810d75502e472e6eb20" d="M 211.056,133.634 L 160.223,133.634 M 160.088,133.634 L 160.088,133.634 M 5.821,135.367 L 55.8,135.367 L 55.8,91.351 L 128.798,133.496 L 55.839,175.918 L 55.839,135.417 M 1.002,132.75 L 5.89,132.75 L 5.89,137.638 L 1.002,137.638 L 1.002,132.75 L 1.002,132.75 M 211.113,131.212 L 216.001,131.212 L 216.001,136.1 L 211.113,136.1 L 211.113,131.212 L 211.113,131.212 M 211.059,133.636 " style="fill: url(#id2a7f4810d75502e472e6eb20lgf); stroke: none" visibility="hidden"><set attributeName="visibility" attributeType="CSS" to="visible" begin="0s" fill="none"/><set attributeName="visibility" attributeType="CSS" to="hidden" begin="1.7s" dur="1000000000000s" fill="freeze"/><animateTransform attributeName="transform" type="translate" additive="replace" begin="0.0s" dur="1000000.0s" repeatCount="1" fill="none" from="91.392 222.0" to="91.392 222.0" calcMode="discrete"/><animateTransform attributeName="transform" type="rotate" additive="sum" begin="0.0s" dur="1000000.0s" repeatCount="1" fill="none" from="270.0 0.0 0.0" to="270.0 0.0 0.0" calcMode="discrete"/><animateTransform attributeName="transform" type="skewX" additive="sum" begin="0.0s" dur="1000000.0s" repeatCount="1" fill="none" from="0" to="0" calcMode="discrete"/><animateTransform attributeName="transform" type="scale" additive="sum" begin="0.0s" dur="1000000.0s" repeatCount="1" fill="none" from="1 1.0" to="1 1.0" calcMode="discrete"/><animateTransform attributeName="transform" type="skewY" additive="sum" begin="0.0s" dur="1000000.0s" repeatCount="1" fill="none" from="0" to="0" calcMode="discrete"/><animateTransform attributeName="transform" type="scale" additive="sum" begin="0.0s" dur="1000000.0s" repeatCount="1" fill="none" from="2.1613849210103107 2.1613849210103107" to="2.1613849210103107 2.1613849210103107" calcMode="discrete"/><animateTransform attributeName="transform" type="translate" additive="sum" begin="0.0s" dur="1000000.0s" repeatCount="1" fill="none" from="-108.499 -133.634" to="-108.499 -133.634" calcMode="discrete"/></path><path id="iddf9ddfe49b4b5737f5b017ac" d="M 0,-59 L 877,-59 L 877,0 L 0,0 L 0,-59 M 0,-59 Z" style="fill: url(#iddf9ddfe49b4b5737f5b017aclgf); stroke: none" visibility="hidden"><set attributeName="visibility" attributeType="CSS" to="visible" begin="0s" fill="none"/><set attributeName="visibility" attributeType="CSS" to="hidden" begin="1.7s" dur="1000000000000s" fill="freeze"/><animateTransform attributeName="transform" type="translate" additive="replace" begin="0.0s" dur="1000000.0s" repeatCount="1" fill="none" from="499.813 417.995" to="499.813 417.995" calcMode="discrete"/><animateTransform attributeName="transform" type="scale" additive="sum" begin="0.0s" dur="1000000.0s" repeatCount="1" fill="none" from="1.1402508551881414 1.1016949152542372" to="1.1402508551881414 1.1016949152542372" calcMode="discrete"/><animateTransform attributeName="transform" type="translate" additive="sum" begin="0.0s" dur="1000000.0s" repeatCount="1" fill="none" from="-438.5 29.5" to="-438.5 29.5" calcMode="discrete"/></path><g id="id7c90f3fcf19819f7e4e33f7a" visibility="hidden"><set attributeName="visibility" attributeType="CSS" to="visible" begin="0s" fill="none"/><set attributeName="visibility" attributeType="CSS" to="hidden" begin="1.7s" dur="1000000000000s" fill="freeze"/><animateTransform attributeName="transform" type="translate" additive="replace" begin="0.0s" dur="1000000.0s" repeatCount="1" fill="none" from="97.451 167.507" to="97.451 167.507" calcMode="discrete"/><animateTransform attributeName="transform" type="translate" additive="sum" begin="0.0s" dur="1000000.0s" repeatCount="1" fill="none" from="-0.0 -0.0" to="-0.0 -0.0" calcMode="discrete"/><g id="idbd46e82144e25a081d992432" visibility="hidden"><set attributeName="visibility" attributeType="CSS" to="visible" begin="0s" fill="none"/><set attributeName="visibility" attributeType="CSS" to="hidden" begin="1.7s" dur="1000000000000s" fill="freeze"/><animateTransform attributeName="transform" type="translate" additive="replace" begin="0.0s" dur="1000000.0s" repeatCount="1" fill="none" from="2.99 -3.506" to="2.99 -3.506" calcMode="discrete"/><animateTransform attributeName="transform" type="translate" additive="sum" begin="0.0s" dur="1000000.0s" repeatCount="1" fill="none" from="-0.0 -0.0" to="-0.0 -0.0" calcMode="discrete"/><path id="ida2ce975d1bf91c63d5343520" d="M 52.903,66.18 C 50.778,64.384 52.516,61.213 52.641,58.885 C 53.558,56.397 53.519,39.891 50.218,39.828 C 46.712,38.764 42.722,40.234 39.506,38.146 C 37.329,36.857 36.653,34.226 36.71,31.861 C 36.752,29.41 34.281,28.378 33.486,26.325 C 32.411,23.763 33.338,20.835 35.182,18.883 C 36.925,16.894 35.395,14.288 36.287,12.111 C 37.558,9.15 41.359,10.458 43.399,8.42 C 45.591,6.872 47.46,4.193 50.497,4.59 C 53.43,4.774 56.704,5.299 59.185,3.304 C 61.499,1.369 64.737,0.334 67.642,1.523 C 70.398,2.374 73.532,4.151 73.544,7.419 C 72.704,10.771 75.881,10.73 78.165,11.191 C 80.871,12.409 83.66,14.303 84.778,17.153 C 85.076,20.412 81.384,23.114 83.058,26.44 C 83.714,29.682 80.895,31.482 78.87,33.238 C 78.038,36.409 74.877,38.988 71.48,38.235 C 68.744,37.787 67.058,40.778 64.268,40.516 C 62.42,42.42 63.679,58.758 64.02,61.011 C 65.413,63.797 63.471,66.879 60.335,66.786 C 57.878,67.079 55.202,67.216 52.894,66.179 L 52.894,66.179 M 52.894,66.179 " style="fill: url(#ida2ce975d1bf91c63d5343520lgf); stroke: none" visibility="hidden"><set attributeName="visibility" attributeType="CSS" to="visible" begin="0s" fill="none"/><set attributeName="visibility" attributeType="CSS" to="hidden" begin="1.7s" dur="1000000000000s" fill="freeze"/><animateTransform attributeName="transform" type="translate" additive="replace" begin="0.0s" dur="1000000.0s" repeatCount="1" fill="none" from="-8.442 0.0" to="-8.442 0.0" calcMode="discrete"/><animateTransform attributeName="transform" type="translate" additive="sum" begin="0.0s" dur="1000000.0s" repeatCount="1" fill="none" from="-58.92 -34.0" to="-58.92 -34.0" calcMode="discrete"/></path><path id="idf56966e5f7cb75e922c0db62" d="M 138.054,158.822 C 137.042,158.822 136.107,158.971 134.628,159.1 C 134.022,159.152 133.43,159.323 132.844,159.487 C 129.883,160.343 127.408,161.555 124.725,162.879 C 123.846,163.312 123.431,163.575 122.129,164.258 C 120.318,165.208 120.284,165.146 118.501,166.147 C 116.723,167.144 116.103,167.445 115.01,168.253 C 109.533,172.304 104.94,176.879 100.094,181.691 C 98.504,183.271 97.732,184.083 95.392,186.496 C 95.269,186.623 95.169,186.77 95.169,186.77 C 95.169,186.77 95.066,187.124 95.178,187.223 C 97.399,187.658 98.388,184.032 99.993,182.439 C 104.839,177.627 109.432,173.052 114.909,169.001 C 116.002,168.193 116.622,167.892 118.4,166.895 C 120.183,165.894 120.217,165.956 122.028,165.006 C 123.33,164.323 123.745,164.06 124.624,163.627 C 127.255,162.329 129.752,161.118 132.476,160.311 C 133.028,160.193 133.571,160.005 134.134,159.956 C 135.613,159.827 136.548,159.678 137.56,159.678 C 138.288,159.678 139.056,159.754 140.095,159.971 C 145.383,161.079 148.767,165.479 151.162,169.79 C 151.26,169.764 151.378,169.672 151.483,169.489 C 151.588,169.306 151.608,169.157 151.583,169.059 C 149.162,164.442 145.878,160.223 140.59,159.115 C 139.551,158.898 138.783,158.822 138.055,158.822 " style="fill: #e51c23; fill-opacity: 1.0; stroke: none" visibility="hidden"><set attributeName="visibility" attributeType="CSS" to="visible" begin="0s" fill="none"/><set attributeName="visibility" attributeType="CSS" to="hidden" begin="1.7s" dur="1000000000000s" fill="freeze"/><animateTransform attributeName="transform" type="translate" additive="replace" begin="0.0s" dur="1000000.0s" repeatCount="1" fill="none" from="22.904 9.057" to="22.904 9.057" calcMode="discrete"/><animateTransform attributeName="transform" type="translate" additive="sum" begin="0.0s" dur="1000000.0s" repeatCount="1" fill="none" from="-123.347 -173.058" to="-123.347 -173.058" calcMode="discrete"/></path><path id="id903e865ef58b1518b57481d2" d="M 142.938,173.967 C 142.938,173.967 142.938,173.967 142.938,173.967 C 141.984,173.967 141.504,173.881 140.078,173.969 C 137.231,174.146 137.228,174.167 134.394,174.498 C 132.975,174.663 132.977,174.694 131.571,174.958 C 129.104,175.423 129.088,175.359 126.65,175.957 C 122.009,177.095 120.481,177.562 117.414,178.428 C 111.249,180.171 105.376,182.882 99.501,185.373 C 97.89,186.055 95.874,186.285 94.769,187.64 C 94.657,187.778 94.531,188.112 94.666,188.233 C 96.36,188.564 97.807,186.795 99.397,186.121 C 109.797,181.709 119.983,178.062 131.076,175.814 C 132.011,175.626 132.478,175.52 133.897,175.355 C 136.731,175.024 136.734,175.003 139.581,174.826 C 141.007,174.738 141.013,174.759 142.442,174.822 C 144.118,174.897 144.691,174.885 145.789,175.106 C 154.252,176.809 163.195,180.174 167.412,187.291 C 167.657,187.223 167.755,186.888 167.805,186.638 C 163.219,178.509 154.752,175.946 146.289,174.243 C 145.191,174.022 142.941,173.96 142.941,173.96 " style="fill: #e51c23; fill-opacity: 1.0; stroke: none" visibility="hidden"><set attributeName="visibility" attributeType="CSS" to="visible" begin="0s" fill="none"/><set attributeName="visibility" attributeType="CSS" to="hidden" begin="1.7s" dur="1000000000000s" fill="freeze"/><animateTransform attributeName="transform" type="translate" additive="replace" begin="0.0s" dur="1000000.0s" repeatCount="1" fill="none" from="30.755 17.113" to="30.755 17.113" calcMode="discrete"/><animateTransform attributeName="transform" type="translate" additive="sum" begin="0.0s" dur="1000000.0s" repeatCount="1" fill="none" from="-131.199 -181.114" to="-131.199 -181.114" calcMode="discrete"/></path><path id="idef7fd468f7ad0983a29ebf42" d="M 46.084,165.122 C 44.486,165.122 42.941,165.303 41.237,165.784 C 40.439,166.009 39.632,166.284 38.943,166.745 C 37.284,167.854 36.236,168.583 34.956,170.152 C 34.423,170.805 34.231,171.198 33.638,172.31 C 33.33,172.89 33.33,172.91 33.154,173.535 C 33.094,173.75 33.052,173.888 33.164,173.987 C 33.274,174.007 33.447,173.862 33.498,173.731 C 35.745,168.067 40.637,166.017 46.134,166.017 C 46.957,166.017 47.794,166.062 48.638,166.148 C 49.08,166.192 49.513,166.312 49.939,166.438 C 56.497,168.371 61.944,171.974 67.798,175.484 C 69.7,176.623 70.703,177.104 73.561,178.803 C 75.071,179.702 75.068,179.709 76.534,180.676 C 78.002,181.644 77.971,181.693 79.433,182.672 C 80.33,183.274 80.366,183.222 81.254,183.838 C 82.999,185.05 83.006,185.043 84.694,186.331 C 85.579,187.006 85.684,187.966 86.397,187.765 C 86.494,187.739 86.612,187.647 86.717,187.464 C 86.822,187.281 86.841,187.132 86.816,187.034 C 86.633,186.305 86.067,186.178 85.188,185.475 C 83.532,184.151 83.492,184.193 81.747,182.981 C 80.859,182.365 80.823,182.417 79.926,181.815 C 78.464,180.836 78.495,180.787 77.027,179.819 C 75.561,178.852 75.564,178.845 74.054,177.946 C 71.196,176.247 70.193,175.766 68.291,174.627 C 62.438,171.117 56.991,167.514 50.433,165.581 C 50.007,165.455 49.574,165.335 49.132,165.291 C 48.065,165.182 47.066,165.114 46.088,165.114 " style="fill: #e51c23; fill-opacity: 1.0; stroke: none" visibility="hidden"><set attributeName="visibility" attributeType="CSS" to="visible" begin="0s" fill="none"/><set attributeName="visibility" attributeType="CSS" to="hidden" begin="1.7s" dur="1000000000000s" fill="freeze"/><animateTransform attributeName="transform" type="translate" additive="replace" begin="0.0s" dur="1000000.0s" repeatCount="1" fill="none" from="-40.479 12.477" to="-40.479 12.477" calcMode="discrete"/><animateTransform attributeName="transform" type="translate" additive="sum" begin="0.0s" dur="1000000.0s" repeatCount="1" fill="none" from="-59.963 -176.478" to="-59.963 -176.478" calcMode="discrete"/></path></g><path id="idc29eaaaf86dbfd3c641cb9eb" d="M 62.494,184.817 C 58.909,184.817 55.313,185.11 51.689,185.841 C 49.858,186.211 48.042,186.661 46.244,187.169 C 44.446,187.677 43.541,187.918 40.871,188.767 C 40.094,189.014 39.826,189.094 39.353,189.36 C 36.711,190.849 35.086,192.215 33.178,194.556 C 32.44,195.463 31.933,196.536 31.334,197.54 C 30.1,199.61 29.009,201.493 27.383,203.256 C 27.304,203.342 27.16,203.53 27.16,203.53 C 27.16,203.53 27.057,203.884 27.169,203.983 C 27.612,204.069 27.869,203.405 28.154,203.056 C 30.664,199.978 32.042,196.023 34.818,193.18 C 36.53,191.427 37.073,191.337 39.252,190.109 C 39.725,189.843 39.993,189.764 40.77,189.517 C 43.319,188.704 43.319,188.689 45.904,187.991 C 48.532,187.281 49.416,187.064 51.195,186.705 C 54.819,185.974 58.414,185.681 61.999,185.681 C 68.619,185.681 75.204,186.681 81.869,187.765 C 83.304,187.998 84.76,188.947 86.159,188.552 C 86.256,188.526 86.374,188.434 86.479,188.251 C 86.584,188.068 86.603,187.919 86.578,187.821 C 86.226,186.427 83.782,187.137 82.362,186.908 C 75.697,185.824 69.112,184.824 62.491,184.824 " style="fill: #e51c23; fill-opacity: 1.0; stroke: none" visibility="hidden"><set attributeName="visibility" attributeType="CSS" to="visible" begin="0s" fill="none"/><set attributeName="visibility" attributeType="CSS" to="hidden" begin="1.7s" dur="1000000000000s" fill="freeze"/><animateTransform attributeName="transform" type="translate" additive="replace" begin="0.0s" dur="1000000.0s" repeatCount="1" fill="none" from="-40.604 26.908" to="-40.604 26.908" calcMode="discrete"/><animateTransform attributeName="transform" type="translate" additive="sum" begin="0.0s" dur="1000000.0s" repeatCount="1" fill="none" from="-56.847 -194.416" to="-56.847 -194.416" calcMode="discrete"/></path></g></g></svg>
